<?xml version="1.0" encoding="utf-8"?>
<!DOCTYPE svg PUBLIC "-//W3C//DTD SVG 1.0//EN" "http://www.w3.org/TR/2001/REC-SVG-20010904/DTD/svg10.dtd">
<svg version="1.0" xmlns="http://www.w3.org/2000/svg" width="2048px" height="1273px" viewBox="0 0 2048 1273" preserveAspectRatio="xMidYMid meet">
 <g fill="#000000">
  <path d="M609 1128.3 c-61.5 -4.6 -123.5 -25 -174.7 -57.4 -30.2 -19.2 -47.3 -32.8 -72.8 -58.4 -15.3 -15.2 -20.5 -21.1 -31.9 -36 -22.7 -29.5 -38.7 -56.8 -51.6 -87.7 -15.1 -36.6 -22.9 -65.5 -28.7 -107.8 -2.5 -17.9 -2.4 -70 0.1 -88.5 6.9 -50.3 17.2 -86.1 36.7 -126.4 22.8 -47.4 57.4 -93.1 93.9 -124.4 5.2 -4.5 9.7 -8.4 10 -8.8 1.3 -1.6 29.5 -22.3 37 -27.1 42.8 -27.7 86.6 -45.4 138 -55.8 26.6 -5.4 36.9 -6.1 90.3 -6.7 l48.7 -0.5 0 37.8 0 37.9 -45.8 0.1 c-40.6 0 -47.4 0.3 -60.7 2.1 -24.3 3.4 -48.9 9.9 -72 19 -33.8 13.3 -72.7 37.5 -96.5 60 -4.5 4.3 -8.6 7.9 -9 8.1 -0.7 0.3 -14.1 14.7 -23.7 25.4 -4.6 5.2 -16.1 21 -22.5 30.8 -26.2 40.6 -42.4 84.7 -48.8 132.5 -12.5 94 20.1 191.3 87.4 260.4 43 44 90.8 72.2 147.6 87 18.8 4.9 28.2 6.6 46.3 8.6 20.6 2.2 872.8 2.3 894 0 72.4 -7.7 139.2 -40.3 191.4 -93.6 22 -22.5 37.3 -43 51.8 -69.4 19.7 -35.9 31.4 -71.1 37.2 -112 2.5 -18.1 2.5 -63.4 -0.1 -81.5 -5.8 -41.6 -19.1 -81.1 -38.4 -115 -5.5 -9.6 -21.6 -34.1 -25.1 -38.3 -1.1 -1.2 -4.7 -5.6 -8.1 -9.7 -14 -17 -34.5 -36.4 -54.5 -51.6 -33.2 -25.2 -70.7 -43.3 -110.5 -53.4 -32.8 -8.3 -40.6 -9.1 -100.2 -9.7 l-49.8 -0.5 0 -37.5 0 -37.5 53.3 0.5 c46.9 0.4 55 0.7 68.2 2.6 33.4 4.6 62.8 12.1 90 22.6 52.5 20.4 97.1 49.4 136.5 88.5 24.1 23.9 40.8 45 58.4 73.8 55.4 90.4 72.3 201.4 45.9 302.2 -7.9 30.1 -14.5 48.4 -26.7 73.1 -10.3 21 -16.3 31.6 -26.9 47.4 -44.1 65.8 -104 115.4 -176.7 146.3 -34.3 14.6 -76.7 25 -114.5 28.2 -11 0.9 -880.4 1.2 -892.5 0.3z"/>
  <path d="M939.5 886.9 c-20.9 -4.1 -36.4 -12 -50.9 -25.8 -14.1 -13.6 -22.3 -28.7 -27.8 -51.1 -2.2 -9.1 -1.6 -33.7 1 -43.7 7.6 -29.2 24 -50.2 49 -63.1 17 -8.7 33.1 -11.9 54.7 -10.9 15.9 0.8 26.5 3.5 40.8 10.6 11.9 5.8 20.5 12.5 27.4 21.3 6 7.6 13.5 20.6 13.1 22.6 -0.3 1.5 -41.6 19.2 -44.8 19.2 -0.5 0 -2 -2.1 -3.5 -4.7 -6 -10.4 -15.5 -19 -23.8 -21.4 -22.4 -6.6 -44.6 1.8 -54.9 20.7 -9 16.6 -9.1 40.3 -0.2 57.5 10.4 19.8 33.6 28.7 55.6 21.1 9.7 -3.3 18.9 -11.9 23.9 -22.3 2.1 -4.4 2.7 -4.9 5 -4.5 1.4 0.3 11.9 4.2 23.3 8.7 23.5 9.3 22 7.4 15.8 19.4 -9.1 17.7 -25 32.6 -42.5 39.7 -15 6.1 -19.9 7 -38.7 7.4 -9.6 0.1 -19.7 -0.2 -22.5 -0.7z"/>
  <path d="M554 752.5 l0 -131.6 65.8 0.4 c58.1 0.3 66.4 0.5 72.1 2 15.4 4.2 28.5 11.2 38.8 21 25.6 24.1 31.8 69.4 14 101.7 -13.8 24.8 -36.7 39.5 -67.2 43 -4.9 0.5 -22.2 1 -38.2 1 l-29.3 0 0 47 0 47 -28 0 -28 0 0 -131.5z m119.9 -11.2 c10 -2.7 17.4 -9.3 21.8 -19.3 9 -20.1 1.3 -42.4 -17.7 -51.4 l-6.5 -3.1 -30.7 -0.3 -30.8 -0.3 0 37.9 c0 20.8 0.2 38.1 0.5 38.4 0.3 0.3 13.5 0.3 29.3 0.1 21.5 -0.3 30.1 -0.8 34.1 -2z"/>
  <path d="M779 790 l0 -94 27 0 27 0 0 94 0 94 -27 0 -27 0 0 -94z"/>
  <path d="M1171 883.3 c-0.1 -0.6 0 -153.4 0 -184.5 l0 -2.8 22.9 0 22.9 0 1.2 8.3 c1.9 13.9 1.7 13.4 5.8 8.7 12.4 -14.6 32.7 -22 56.5 -20.6 18.2 1 32.5 7.2 44.4 19.4 3.4 3.6 6.3 6.9 6.3 7.3 0 0.5 0.7 0.9 1.5 0.9 0.8 0 1.5 -0.4 1.5 -0.8 0 -2 12.2 -12.8 19 -16.8 10.6 -6.3 21.2 -9.4 34.1 -10.1 33.1 -1.8 58.5 11.2 70.4 35.8 8 16.6 7.8 14.8 8.2 89.7 l0.4 66.2 -27 0 -27 0 -0.3 -59.2 c-0.4 -65.5 -0.4 -64.6 -7 -75.1 -3.8 -6 -8.9 -9.3 -17.4 -11.4 -5.5 -1.4 -7.5 -1.4 -13.3 -0.4 -12.6 2.3 -21.1 9.3 -26.3 22.1 -2.3 5.5 -2.3 5.9 -2.6 64.8 l-0.3 59.2 -27 0 -26.9 0 0 -56.9 c0 -59.8 -0.3 -65 -4.7 -73.5 -6.5 -12.7 -18.5 -18.3 -33.3 -15.6 -10.5 1.9 -16.2 5.7 -21.6 14.2 -6.1 9.5 -5.8 7.1 -6.4 71.8 l-0.5 59.5 -26.7 0.3 c-14.8 0.1 -26.8 -0.1 -26.8 -0.5z"/>
  <path d="M1498 790 l0 -94 26.8 0.2 26.7 0.3 0.3 93.8 0.2 93.7 -27 0 -27 0 0 -94z"/>
  <path d="M1085.6 721.3 c-1.2 -11.8 -6.6 -90.9 -6.6 -98 l0 -2.3 24 0 24.1 0 -0.6 6.3 c-0.3 3.4 -1.2 17 -2 30.2 -0.8 13.2 -2.2 34.1 -3 46.5 -0.8 12.4 -1.5 22.6 -1.5 22.8 0 0.1 -7.6 0.2 -16.9 0.2 l-16.8 0 -0.7 -5.7z"/>
  <path d="M793.5 670.1 c-13.5 -2.3 -16.8 -7.4 -16.9 -26.1 -0.2 -23.7 5.4 -28.5 32.1 -27.8 11.8 0.3 14.4 0.7 17.9 2.5 6.2 3.3 8.7 9.2 9.2 21.4 0.8 17.8 -2.9 26.4 -12.3 28.8 -6 1.5 -23.8 2.2 -30 1.2z"/>
  <path d="M1512.5 669.9 c-7.4 -1.2 -12.3 -3.8 -14.8 -7.8 -1.9 -3.1 -2.2 -5.3 -2.5 -16.1 -0.5 -15 0.7 -20.2 5.3 -24.6 4.5 -4.2 10 -5.4 24.4 -5.4 17.5 0 23.8 2.8 27.8 12 1.1 2.7 1.4 6.7 1.1 17 -0.4 15.6 -1.5 18.8 -7.8 22 -6.7 3.4 -22.4 4.8 -33.5 2.9z"/>
  <path d="M810.5 551.5 c-11.2 -2.4 -21.2 -7.4 -30.7 -15.5 -7.6 -6.3 -12.3 -12.3 -16.9 -21.5 -7.3 -14.7 -7 -7.8 -6.7 -159.5 0.3 -134.3 0.4 -135.6 2.4 -141.5 7.7 -22.1 22 -37.3 43.3 -45.9 l7.6 -3.1 48.5 -0.5 c32.8 -0.4 49.6 -1 51.9 -1.8 9.1 -3.1 13.9 -9.4 22.1 -29 3.4 -8.1 7.7 -17.9 9.6 -21.7 6.9 -14 20.3 -25.4 34 -28.9 9 -2.3 137 -2.4 145.7 -0.1 11.6 3 21.5 9.6 28.6 19.1 4.7 6.2 7.4 11.3 14.6 28.5 3.2 7.4 6.7 15.2 7.8 17.4 3.1 5.9 8.6 11.4 13.7 13.8 4.3 2.1 6.3 2.2 52.5 2.7 41.3 0.5 48.8 0.9 53.9 2.3 23.6 6.9 42.9 27.9 48.1 52.2 1.2 6 1.5 26.6 1.5 140.5 0 148.6 0.3 140.9 -6.9 155.5 -6.9 13.8 -17.4 24.1 -32.4 31.7 -14.3 7.1 -6 6.8 -171.1 6.8 -167.2 0 -155.5 0.5 -163.3 -7.6 -7.1 -7.3 -7.3 -9.1 -7.3 -53.3 0 -37 0.1 -38.7 2 -41.9 2.1 -3.4 7.2 -6.2 11.2 -6.2 1.3 0 5.7 2.1 9.8 4.7 18 11.1 33.9 16.6 53.7 18.5 60.7 5.7 115.9 -34.8 128.9 -94.8 2.4 -11.1 2.4 -34.1 0 -45.4 -6.4 -30.1 -22.9 -56.5 -46.1 -73.8 -7.9 -5.9 -25.8 -15.1 -35.4 -18.1 -16.3 -5.2 -40.5 -6.8 -57.6 -3.7 -45 8.1 -82.3 42.5 -93.9 86.7 -4.3 16.2 -4.6 22.6 -4.6 101.2 0 83.9 0.1 82.3 -7.2 97.6 -5.7 11.9 -16.9 23.1 -28.8 29 -13 6.3 -18.2 7.1 -49.5 7 -18.4 0 -28.9 -0.5 -33 -1.4z m66 -24.8 c11.5 -3.7 21.5 -14 26 -26.7 1.9 -5.2 2 -9.5 2.6 -88.5 0.6 -86.9 0.6 -86.1 5.5 -102.9 11.3 -38.5 37.9 -70.4 73.9 -88.4 22 -11 45 -15.8 71 -14.9 27.6 1.1 49.3 8.2 74.4 24.4 10.8 7 30.6 26.7 38 37.8 21 31.5 29.3 69.8 23.1 105.7 -2.6 14.9 -5.8 24.7 -13 39.3 -19.5 39.5 -56.2 67.5 -101.1 77.2 -6.6 1.4 -12.9 1.8 -28.9 1.8 -17.8 0 -21.7 -0.3 -29.5 -2.2 -9.1 -2.3 -20 -5.8 -26.7 -8.7 -2.1 -0.9 -4.2 -1.6 -4.8 -1.6 -0.7 0 -0.9 8 -0.8 24.8 l0.3 24.7 140.5 0.3 c92.6 0.2 143.9 -0.1 150.4 -0.8 11.7 -1.2 19.4 -4.7 26.7 -12.1 5.7 -5.8 11.4 -16.6 12.8 -24.3 1.5 -8.1 1.5 -255.4 0 -264.6 -2.2 -14.3 -12.9 -28.9 -25.6 -34.8 l-5.8 -2.7 -48 -0.5 -48 -0.6 -8 -2.8 c-19.1 -6.6 -25.2 -13.6 -39.5 -45.6 -8.8 -19.7 -10.3 -22.4 -14.9 -27.2 -7 -7.5 -4.6 -7.3 -78.1 -7.3 -72 0.1 -70.2 -0.1 -77.1 6.2 -4.7 4.3 -8.3 10.4 -14.4 24.8 -8.9 21 -13.6 29.7 -19.4 35.9 -6.5 6.8 -11 9.6 -21.2 13.3 l-7.4 2.7 -47 0.2 c-45.5 0.2 -47.2 0.3 -52.8 2.4 -9.6 3.6 -19.8 12.9 -24.5 22.4 -5.2 10.4 -5.2 8.4 -5.2 145.8 0 89.2 0.3 129.3 1.1 133 1.3 6.1 5.9 16.1 9.3 19.9 4.1 4.7 13.3 11.6 17.8 13.3 7.7 3 13.7 3.5 38.8 3.2 19.5 -0.2 25.5 -0.6 29.5 -1.9z"/>
  <path d="M1239.5 286.1 c-13.4 -3.6 -23.3 -13.3 -27.1 -26.5 -4.5 -16 4.1 -33.8 20.4 -41.8 8.5 -4.2 18.4 -4.5 28.2 -0.8 12.4 4.6 21.6 16.7 23.6 31.2 0.9 6.5 -2.7 18.1 -7.5 24.3 -4.1 5.5 -11.5 10.9 -16.9 12.5 -5 1.5 -17 2.1 -20.7 1.1z m16.3 -27 c5.6 -5.6 4.6 -14 -2 -18.1 -6 -3.6 -12.3 -2 -15.7 4.1 -2.9 5 -2.2 10 1.9 14.1 2.4 2.3 3.7 2.8 7.8 2.8 4.2 0 5.5 -0.5 8 -2.9z"/>
  <path d="M1033.5 435.1 c-11.2 -2.1 -15.4 -3.5 -24.2 -7.9 -18.6 -9.4 -31.2 -22.4 -40.4 -41.7 -5.8 -12.1 -7.9 -21.8 -7.9 -36 0 -24.7 8.6 -45.9 25.7 -63 17.1 -17.2 37.5 -25.5 62.8 -25.5 18.2 0 33.5 4.5 47.4 13.9 26.8 18.2 41.5 46.9 39.8 78 -2.1 39.3 -28 71.2 -65.6 80.7 -13.2 3.4 -25.1 3.8 -37.6 1.5z m31.9 -25.1 c11.6 -2.9 18.9 -7.3 28.3 -16.6 12.7 -12.7 18.5 -26.2 18.6 -43.4 0.2 -34.9 -25.6 -62.8 -59.8 -64.7 -12.3 -0.7 -20.2 1 -32.5 7 -22.4 10.9 -36.8 36.6 -34.5 61.6 1.5 16.5 8.9 31 21.7 42.6 14.9 13.7 37.3 18.9 58.2 13.5z"/>
 </g>
</svg>